<svg width="415" height="444" viewBox="0 0 415 444" fill="none" xmlns="http://www.w3.org/2000/svg">
<path d="M95.493 43.3182C151.802 8.72292 215.977 16.7174 258.748 49.9051C299.794 81.7553 320.897 136.648 297.107 198.264C321.26 199.725 339.113 206.006 351.576 215.801C365.772 226.957 372.245 242.1 373.439 257.783C374.622 273.315 370.661 289.415 364.081 303.288C357.516 317.128 348.067 329.336 337.639 336.831C313.904 353.889 289.3 363.28 264.869 366.475L267.596 385.347L307.272 423.968C309.166 425.811 309.755 428.618 308.763 431.067C307.77 433.516 305.393 435.121 302.751 435.126H301.959C301.445 435.126 300.692 435.126 299.733 435.124C297.815 435.12 295.069 435.111 291.756 435.089C285.131 435.044 276.222 434.947 267.102 434.736C258 434.526 248.616 434.201 241.068 433.697C237.305 433.446 233.9 433.144 231.176 432.773C229.818 432.589 228.533 432.375 227.411 432.118C226.439 431.896 225.027 431.522 223.771 430.817C221.891 429.762 220.656 427.843 220.474 425.695L215.339 364.806C214.161 364.578 212.986 364.336 211.813 364.083L206.645 387.443C207.022 388.589 207.08 389.831 206.783 391.032L197.954 426.723C197.246 429.584 194.703 431.611 191.757 431.662L113.127 433.028C110.641 433.071 108.348 431.693 107.221 429.477C106.093 427.262 106.329 424.596 107.827 422.612C109.895 419.874 113.287 416.687 116.866 413.578C120.558 410.372 124.89 406.878 129.143 403.492C131.982 401.233 134.77 399.03 137.37 396.952L147.805 387.957L157.822 343.709L157.887 343.448C157.92 343.323 157.959 343.199 158 343.077C129.976 327.079 104.948 304.435 85.0321 278.552C55.9125 240.707 37.2602 195.342 36.453 152.647C35.6401 109.644 53.0015 69.4246 95.493 43.3182Z" fill="#71F8FF" stroke="white" stroke-width="17" stroke-linecap="round" stroke-linejoin="round"/>
<path d="M287.531 205.492C400.339 206.393 371.222 305.781 333.901 332.603C158.593 458.592 -62.238 148.94 98.9514 49.9068C206.788 -16.3466 343.902 80.7891 287.531 205.492Z" stroke="black" stroke-width="13" stroke-linecap="round" stroke-linejoin="round"/>
<path d="M221.634 193.433C229.602 177.517 242.84 137.309 215.853 108.511C174.646 64.5377 60.9891 105.099 106.336 213.103C121.996 250.401 161.718 281.821 181.007 286.643" stroke="black" stroke-width="13" stroke-linecap="round" stroke-linejoin="bevel"/>
<path d="M199.236 264.141C186.664 258.959 162.299 241.772 165.412 214.479C169.302 180.362 220.704 171.395 230.079 213.838" stroke="black" stroke-width="13" stroke-linecap="round" stroke-linejoin="bevel"/>
<path d="M224.788 124.03C210.046 116.438 177.351 108.418 154.014 137.179C140.086 154.345 137.547 171.154 139.301 184.103" stroke="black" stroke-width="13" stroke-linecap="round" stroke-linejoin="bevel"/>
<path d="M287.553 205.606C280.356 217.905 261.167 245.068 241.99 255.326" stroke="black" stroke-width="13" stroke-linecap="round" stroke-linejoin="round"/>
<circle cx="268.697" cy="278.299" r="11.102" transform="rotate(-8.62874 268.697 278.299)" fill="black"/>
<circle cx="327.427" cy="263.557" r="11.102" transform="rotate(-8.62874 327.427 263.557)" fill="black"/>
<path d="M278.895 306.471C280.989 310.476 287.809 318.252 298.341 317.317C308.872 316.382 311.976 302.317 312.212 295.401" stroke="black" stroke-width="13" stroke-linecap="round" stroke-linejoin="round"/>
<path d="M164.218 346.194L153.727 392.532L113.07 427.58L191.7 426.213L204.278 362.282" stroke="black" stroke-width="13" stroke-linecap="round" stroke-linejoin="round"/>
<path d="M221.793 364.368L227.008 426.199L302.795 429.676L261.534 389.514L259.834 363.348" stroke="black" stroke-width="13" stroke-linecap="round" stroke-linejoin="round"/>
<path d="M203.114 370.052L160.682 363.264C161.178 361.586 162.443 355.84 163.534 346.275C173.327 354.001 195.744 360.514 205.728 362.805L203.114 370.052Z" fill="black" stroke="black" stroke-width="13" stroke-linecap="round" stroke-linejoin="round"/>
<path d="M260.573 375.486L222.51 370.44L223.299 365.578C229.719 369.181 249.872 365.622 259.146 363.392L260.573 375.486Z" fill="black" stroke="black" stroke-width="13" stroke-linecap="round" stroke-linejoin="round"/>
</svg>
