<svg width="128" height="131" viewBox="0 0 128 131" fill="none" xmlns="http://www.w3.org/2000/svg">
<path d="M21.9492 8.41357C64.2387 -17.5686 118.01 20.5242 95.9033 69.4282C92.729 76.9176 85.478 84.8213 86.4785 84.8735C90.4618 88.7603 104.685 74.9142 106.254 70.3599C138.123 76.3716 127.446 109.676 114.088 119.276C45.3385 168.684 -41.2634 47.2508 21.9492 8.41357ZM107.78 98.2183C105.508 98.141 103.603 99.9211 103.525 102.194C103.481 103.501 103.146 105.488 102.408 107.052C101.664 108.63 100.967 108.94 100.472 108.984C99.049 109.11 97.8746 108.669 96.8955 107.975C95.8518 107.235 95.1781 106.302 94.9453 105.857C93.8917 103.842 91.4038 103.063 89.3887 104.116C87.3734 105.169 86.5929 107.657 87.6465 109.672C89.0586 112.373 93.6781 117.855 101.2 117.187C105.87 116.772 108.52 113.401 109.856 110.567C111.2 107.719 111.685 104.559 111.756 102.474C111.833 100.202 110.053 98.2959 107.78 98.2183ZM83.2109 100.904C82.7584 97.9216 80.0097 95.8556 77.0342 96.23L76.8926 96.2495C73.8628 96.7093 71.7785 99.539 72.2383 102.569L72.2617 102.709C72.7784 105.615 75.4866 107.61 78.415 107.242L78.5576 107.222C81.5396 106.769 83.6051 104.021 83.2305 101.045L83.2109 100.904ZM70.0146 26.6187C60.2126 16.1591 42.6941 16.2502 30.5615 24.1411C24.322 28.1994 19.2388 34.4313 17.0205 42.6792C14.8045 50.9193 15.5434 60.8025 20.2637 72.0454C23.63 80.063 29.4854 87.2692 35.3848 92.6821C41.1752 97.995 47.5735 102.093 52.3457 103.287C54.5518 103.838 56.7873 102.496 57.3389 100.29C57.8899 98.0836 56.5487 95.8479 54.3428 95.2964C51.5505 94.5981 46.3774 91.5897 40.9531 86.6128C35.6375 81.7355 30.6323 75.4669 27.8574 68.8579C23.6866 58.924 23.3281 50.9344 24.9727 44.8188C26.6152 38.7113 30.3515 34.1015 35.0518 31.0444C42.6141 26.1261 52.0423 25.4826 58.8584 28.6089C58.4739 28.611 58.0862 28.6208 57.6963 28.6401C51.5771 28.9435 44.9463 31.4447 39.5605 38.0825C33.3489 45.7383 32.0755 53.482 32.9082 59.6313C33.2134 61.8848 35.2876 63.4646 37.541 63.1597C39.7945 62.8544 41.3746 60.7794 41.0693 58.5259C40.5269 54.519 41.2445 49.0791 45.9561 43.272C49.7216 38.631 54.0788 37.0653 58.1035 36.8657C61.9712 36.674 65.6234 37.7567 68.0586 38.9028C69.0675 41.7786 69.3486 44.7856 69.1729 47.7358C68.9682 51.1692 68.1448 54.4141 67.2158 57.0396C64.5245 55.7387 61.5912 55.2692 58.7617 55.5034C51.3725 56.1154 44.1505 61.6372 43.1367 70.5249C42.3621 77.3185 45.0564 82.7872 48.4482 86.6841C51.7846 90.5171 55.9658 93.0546 58.9238 94.2739C61.0262 95.1404 63.4331 94.1389 64.2998 92.0366C65.1661 89.9343 64.1646 87.5275 62.0625 86.6606C60.0905 85.8477 57.0284 83.9984 54.6602 81.2778C52.3475 78.6208 50.8735 75.3668 51.3193 71.4575C51.8317 66.967 55.4518 64.0408 59.4414 63.7104C61.3856 63.5495 63.2836 64.0327 64.8369 65.1841C66.3652 66.3171 67.8324 68.3013 68.5674 71.6284C69.058 73.8488 71.2562 75.2514 73.4766 74.7612C75.6971 74.2707 77.0998 72.0726 76.6094 69.8521C76.0186 67.1777 75.0456 64.8411 73.7588 62.8677C75.3289 59.3012 77.0463 54.0515 77.3936 48.2261C77.8058 41.3072 76.2867 33.3118 70.0146 26.6187ZM114.144 86.0337C113.691 83.0515 110.942 80.9864 107.967 81.3608L107.825 81.3804C104.795 81.8401 102.711 84.669 103.171 87.6987L103.194 87.8403C103.711 90.7462 106.419 92.7402 109.348 92.3716L109.49 92.3521C112.472 91.8991 114.538 89.1507 114.163 86.1753L114.144 86.0337Z" fill="white"/>
</svg>
